<mxfile host="app.diagrams.net" modified="2024-05-15T13:42:16.863Z" agent="Mozilla/5.0 (Windows NT 10.0; Win64; x64) AppleWebKit/537.36 (KHTML, like Gecko) Chrome/115.0.0.0 Safari/537.36 Edg/115.0.1901.183" version="24.4.0" etag="gSgb_q3uqF27J35IILEc" type="github">
  <diagram name="PÃ¡gina-1" id="P45KtlXm5Lx3-Y3Uphid">
    <mxGraphModel>
      <root>
        <mxCell id="0" />
        <mxCell id="1" parent="0" />
      </root>
    </mxGraphModel>
  </diagram>
</mxfile>
